<svg width="165" height="24" viewBox="0 0 165 24" fill="none" xmlns="http://www.w3.org/2000/svg">
<path d="M0.852273 3.58807V0.545454H15.1875V3.58807H9.84375V18H6.19602V3.58807H0.852273ZM19.4318 18.2472C18.5966 18.2472 17.8523 18.1023 17.1989 17.8125C16.5455 17.517 16.0284 17.0824 15.6477 16.5085C15.2727 15.929 15.0852 15.2074 15.0852 14.3438C15.0852 13.6165 15.2188 13.0057 15.4858 12.5114C15.7528 12.017 16.1165 11.6193 16.5767 11.3182C17.0369 11.017 17.5597 10.7898 18.1449 10.6364C18.7358 10.483 19.3551 10.375 20.0028 10.3125C20.7642 10.233 21.3778 10.1591 21.8438 10.0909C22.3097 10.017 22.6477 9.90909 22.858 9.76705C23.0682 9.625 23.1733 9.41477 23.1733 9.13636V9.08523C23.1733 8.54545 23.0028 8.12784 22.6619 7.83239C22.3267 7.53693 21.8494 7.3892 21.2301 7.3892C20.5767 7.3892 20.0568 7.53409 19.6705 7.82386C19.2841 8.10795 19.0284 8.46591 18.9034 8.89773L15.5455 8.625C15.7159 7.82955 16.0511 7.14205 16.5511 6.5625C17.0511 5.97727 17.696 5.52841 18.4858 5.21591C19.2813 4.89773 20.2017 4.73864 21.2472 4.73864C21.9744 4.73864 22.6705 4.82386 23.3352 4.99432C24.0057 5.16477 24.5994 5.42898 25.1165 5.78693C25.6392 6.14489 26.0511 6.60511 26.3523 7.16761C26.6534 7.72443 26.804 8.39205 26.804 9.17045V18H23.3608V16.1847H23.2585C23.0483 16.5938 22.767 16.9545 22.4148 17.267C22.0625 17.5739 21.6392 17.8153 21.1449 17.9915C20.6506 18.1619 20.0795 18.2472 19.4318 18.2472ZM20.4716 15.7415C21.0057 15.7415 21.4773 15.6364 21.8864 15.4261C22.2955 15.2102 22.6165 14.9205 22.8494 14.5568C23.0824 14.1932 23.1989 13.7812 23.1989 13.321V11.9318C23.0852 12.0057 22.929 12.0739 22.7301 12.1364C22.5369 12.1932 22.3182 12.2472 22.0739 12.2983C21.8295 12.3437 21.5852 12.3864 21.3409 12.4261C21.0966 12.4602 20.875 12.4915 20.6761 12.5199C20.25 12.5824 19.8778 12.6818 19.5597 12.8182C19.2415 12.9545 18.9943 13.1392 18.8182 13.3722C18.642 13.5994 18.554 13.8835 18.554 14.2244C18.554 14.7188 18.733 15.0966 19.0909 15.358C19.4545 15.6136 19.9148 15.7415 20.4716 15.7415ZM40.5128 8.64205L37.1889 8.84659C37.1321 8.5625 37.0099 8.30682 36.8224 8.07955C36.6349 7.84659 36.3878 7.66193 36.081 7.52557C35.7798 7.38352 35.419 7.3125 34.9986 7.3125C34.4361 7.3125 33.9616 7.43182 33.5753 7.67045C33.1889 7.90341 32.9957 8.21591 32.9957 8.60795C32.9957 8.92045 33.1207 9.18466 33.3707 9.40057C33.6207 9.61648 34.0497 9.78977 34.6577 9.92045L37.027 10.3977C38.2997 10.6591 39.2486 11.0795 39.8736 11.6591C40.4986 12.2386 40.8111 13 40.8111 13.9432C40.8111 14.8011 40.5582 15.554 40.0526 16.2017C39.5526 16.8494 38.8651 17.3551 37.9901 17.7188C37.1207 18.0767 36.1179 18.2557 34.9815 18.2557C33.2486 18.2557 31.8679 17.8949 30.8395 17.1733C29.8168 16.446 29.2173 15.4574 29.0412 14.2074L32.6122 14.0199C32.7202 14.5483 32.9815 14.9517 33.3963 15.2301C33.8111 15.5028 34.3423 15.6392 34.9901 15.6392C35.6264 15.6392 36.1378 15.517 36.5241 15.2727C36.9162 15.0227 37.1151 14.7017 37.1207 14.3097C37.1151 13.9801 36.9759 13.7102 36.7031 13.5C36.4304 13.2841 36.0099 13.1193 35.4418 13.0057L33.1747 12.554C31.8963 12.2983 30.9446 11.8551 30.3196 11.2244C29.7003 10.5937 29.3906 9.78977 29.3906 8.8125C29.3906 7.97159 29.6179 7.24716 30.0724 6.6392C30.5327 6.03125 31.1776 5.5625 32.0071 5.23295C32.8423 4.90341 33.8196 4.73864 34.9389 4.73864C36.5923 4.73864 37.8935 5.08807 38.8423 5.78693C39.7969 6.4858 40.3537 7.4375 40.5128 8.64205ZM46.3871 14.233L46.3956 9.87784H46.924L51.1172 4.90909H55.2848L49.6513 11.4886H48.7905L46.3871 14.233ZM43.0973 18V0.545454H46.728V18H43.0973ZM51.2791 18L47.4268 12.2983L49.8473 9.73295L55.532 18H51.2791ZM62.6889 0.545454H67.2401L72.0469 12.2727H72.2514L77.0582 0.545454H81.6094V18H78.0298V6.6392H77.8849L73.3679 17.9148H70.9304L66.4134 6.59659H66.2685V18H62.6889V0.545454ZM88.3146 18.2472C87.4794 18.2472 86.7351 18.1023 86.0817 17.8125C85.4283 17.517 84.9112 17.0824 84.5305 16.5085C84.1555 15.929 83.968 15.2074 83.968 14.3438C83.968 13.6165 84.1016 13.0057 84.3686 12.5114C84.6357 12.017 84.9993 11.6193 85.4595 11.3182C85.9197 11.017 86.4425 10.7898 87.0277 10.6364C87.6186 10.483 88.2379 10.375 88.8857 10.3125C89.647 10.233 90.2607 10.1591 90.7266 10.0909C91.1925 10.017 91.5305 9.90909 91.7408 9.76705C91.951 9.625 92.0561 9.41477 92.0561 9.13636V9.08523C92.0561 8.54545 91.8857 8.12784 91.5447 7.83239C91.2095 7.53693 90.7322 7.3892 90.1129 7.3892C89.4595 7.3892 88.9396 7.53409 88.5533 7.82386C88.1669 8.10795 87.9112 8.46591 87.7862 8.89773L84.4283 8.625C84.5987 7.82955 84.9339 7.14205 85.4339 6.5625C85.9339 5.97727 86.5788 5.52841 87.3686 5.21591C88.1641 4.89773 89.0845 4.73864 90.13 4.73864C90.8572 4.73864 91.5533 4.82386 92.218 4.99432C92.8885 5.16477 93.4822 5.42898 93.9993 5.78693C94.522 6.14489 94.9339 6.60511 95.2351 7.16761C95.5362 7.72443 95.6868 8.39205 95.6868 9.17045V18H92.2436V16.1847H92.1413C91.9311 16.5938 91.6499 16.9545 91.2976 17.267C90.9453 17.5739 90.522 17.8153 90.0277 17.9915C89.5334 18.1619 88.9624 18.2472 88.3146 18.2472ZM89.3544 15.7415C89.8885 15.7415 90.3601 15.6364 90.7692 15.4261C91.1783 15.2102 91.4993 14.9205 91.7322 14.5568C91.9652 14.1932 92.0817 13.7812 92.0817 13.321V11.9318C91.968 12.0057 91.8118 12.0739 91.6129 12.1364C91.4197 12.1932 91.201 12.2472 90.9567 12.2983C90.7124 12.3437 90.468 12.3864 90.2237 12.4261C89.9794 12.4602 89.7578 12.4915 89.5589 12.5199C89.1328 12.5824 88.7607 12.6818 88.4425 12.8182C88.1243 12.9545 87.8771 13.1392 87.701 13.3722C87.5249 13.5994 87.4368 13.8835 87.4368 14.2244C87.4368 14.7188 87.6158 15.0966 87.9737 15.358C88.3374 15.6136 88.7976 15.7415 89.3544 15.7415ZM102.134 10.4318V18H98.5036V4.90909H101.964V7.21875H102.117C102.407 6.45739 102.893 5.85511 103.575 5.41193C104.256 4.96307 105.083 4.73864 106.055 4.73864C106.964 4.73864 107.756 4.9375 108.433 5.33523C109.109 5.73295 109.634 6.30114 110.009 7.03977C110.384 7.77273 110.572 8.64773 110.572 9.66477V18H106.941V10.3125C106.947 9.51136 106.742 8.88636 106.327 8.4375C105.913 7.98295 105.342 7.75568 104.614 7.75568C104.126 7.75568 103.694 7.8608 103.319 8.07102C102.95 8.28125 102.66 8.58807 102.45 8.99148C102.245 9.3892 102.14 9.86932 102.134 10.4318ZM117.166 18.2472C116.331 18.2472 115.587 18.1023 114.933 17.8125C114.28 17.517 113.763 17.0824 113.382 16.5085C113.007 15.929 112.82 15.2074 112.82 14.3438C112.82 13.6165 112.953 13.0057 113.22 12.5114C113.487 12.017 113.851 11.6193 114.311 11.3182C114.771 11.017 115.294 10.7898 115.879 10.6364C116.47 10.483 117.089 10.375 117.737 10.3125C118.499 10.233 119.112 10.1591 119.578 10.0909C120.044 10.017 120.382 9.90909 120.592 9.76705C120.803 9.625 120.908 9.41477 120.908 9.13636V9.08523C120.908 8.54545 120.737 8.12784 120.396 7.83239C120.061 7.53693 119.584 7.3892 118.964 7.3892C118.311 7.3892 117.791 7.53409 117.405 7.82386C117.018 8.10795 116.763 8.46591 116.638 8.89773L113.28 8.625C113.45 7.82955 113.786 7.14205 114.286 6.5625C114.786 5.97727 115.43 5.52841 116.22 5.21591C117.016 4.89773 117.936 4.73864 118.982 4.73864C119.709 4.73864 120.405 4.82386 121.07 4.99432C121.74 5.16477 122.334 5.42898 122.851 5.78693C123.374 6.14489 123.786 6.60511 124.087 7.16761C124.388 7.72443 124.538 8.39205 124.538 9.17045V18H121.095V16.1847H120.993C120.783 16.5938 120.501 16.9545 120.149 17.267C119.797 17.5739 119.374 17.8153 118.879 17.9915C118.385 18.1619 117.814 18.2472 117.166 18.2472ZM118.206 15.7415C118.74 15.7415 119.212 15.6364 119.621 15.4261C120.03 15.2102 120.351 14.9205 120.584 14.5568C120.817 14.1932 120.933 13.7812 120.933 13.321V11.9318C120.82 12.0057 120.663 12.0739 120.464 12.1364C120.271 12.1932 120.053 12.2472 119.808 12.2983C119.564 12.3437 119.32 12.3864 119.075 12.4261C118.831 12.4602 118.609 12.4915 118.411 12.5199C117.984 12.5824 117.612 12.6818 117.294 12.8182C116.976 12.9545 116.729 13.1392 116.553 13.3722C116.376 13.5994 116.288 13.8835 116.288 14.2244C116.288 14.7188 116.467 15.0966 116.825 15.358C117.189 15.6136 117.649 15.7415 118.206 15.7415ZM133.253 23.1818C132.077 23.1818 131.068 23.0199 130.227 22.696C129.392 22.3778 128.727 21.9432 128.233 21.392C127.739 20.8409 127.418 20.2216 127.27 19.5341L130.628 19.0824C130.73 19.3438 130.892 19.5881 131.114 19.8153C131.335 20.0426 131.628 20.2244 131.991 20.3608C132.361 20.5028 132.81 20.5739 133.338 20.5739C134.128 20.5739 134.778 20.3807 135.29 19.9943C135.807 19.6136 136.065 18.9744 136.065 18.0767V15.6818H135.912C135.753 16.0455 135.514 16.3892 135.196 16.7131C134.878 17.0369 134.469 17.3011 133.969 17.5057C133.469 17.7102 132.872 17.8125 132.179 17.8125C131.196 17.8125 130.301 17.5852 129.494 17.1307C128.693 16.6705 128.054 15.9687 127.577 15.0256C127.105 14.0767 126.869 12.8778 126.869 11.429C126.869 9.94602 127.111 8.70739 127.594 7.71307C128.077 6.71875 128.719 5.97443 129.52 5.48011C130.327 4.9858 131.21 4.73864 132.17 4.73864C132.903 4.73864 133.517 4.86364 134.011 5.11364C134.506 5.35795 134.903 5.66477 135.205 6.03409C135.511 6.39773 135.747 6.75568 135.912 7.10795H136.048V4.90909H139.653V18.1278C139.653 19.2415 139.381 20.1733 138.835 20.9233C138.29 21.6733 137.534 22.2358 136.568 22.6108C135.608 22.9915 134.503 23.1818 133.253 23.1818ZM133.33 15.0852C133.915 15.0852 134.409 14.9403 134.812 14.6506C135.222 14.3551 135.534 13.9347 135.75 13.3892C135.972 12.8381 136.082 12.179 136.082 11.4119C136.082 10.6449 135.974 9.98011 135.759 9.41761C135.543 8.84943 135.23 8.40909 134.821 8.09659C134.412 7.78409 133.915 7.62784 133.33 7.62784C132.733 7.62784 132.23 7.78977 131.821 8.11364C131.412 8.43182 131.102 8.875 130.892 9.44318C130.682 10.0114 130.577 10.6676 130.577 11.4119C130.577 12.1676 130.682 12.821 130.892 13.3722C131.108 13.9176 131.418 14.3409 131.821 14.642C132.23 14.9375 132.733 15.0852 133.33 15.0852ZM148.509 18.2557C147.162 18.2557 146.003 17.983 145.031 17.4375C144.065 16.8864 143.321 16.108 142.798 15.1023C142.276 14.0909 142.014 12.8949 142.014 11.5142C142.014 10.1676 142.276 8.9858 142.798 7.96875C143.321 6.9517 144.057 6.15909 145.006 5.59091C145.96 5.02273 147.08 4.73864 148.364 4.73864C149.227 4.73864 150.031 4.87784 150.776 5.15625C151.526 5.42898 152.179 5.84091 152.736 6.39205C153.298 6.94318 153.736 7.63636 154.048 8.47159C154.361 9.30114 154.517 10.2727 154.517 11.3864V12.3835H143.463V10.1335H151.099C151.099 9.6108 150.986 9.14773 150.759 8.74432C150.531 8.34091 150.216 8.02557 149.812 7.7983C149.415 7.56534 148.952 7.44886 148.423 7.44886C147.872 7.44886 147.384 7.5767 146.957 7.83239C146.537 8.08239 146.207 8.42045 145.969 8.84659C145.73 9.26705 145.608 9.7358 145.602 10.2528V12.392C145.602 13.0398 145.722 13.5994 145.96 14.071C146.205 14.5426 146.548 14.9062 146.991 15.1619C147.435 15.4176 147.96 15.5455 148.568 15.5455C148.972 15.5455 149.341 15.4886 149.676 15.375C150.011 15.2614 150.298 15.0909 150.537 14.8636C150.776 14.6364 150.957 14.358 151.082 14.0284L154.44 14.25C154.27 15.0568 153.92 15.7614 153.392 16.3636C152.869 16.9602 152.193 17.4261 151.364 17.7614C150.54 18.0909 149.588 18.2557 148.509 18.2557ZM156.886 18V4.90909H160.406V7.19318H160.543C160.781 6.38068 161.182 5.76705 161.744 5.35227C162.307 4.93182 162.955 4.72159 163.688 4.72159C163.869 4.72159 164.065 4.73295 164.276 4.75568C164.486 4.77841 164.67 4.80966 164.83 4.84943V8.07102C164.659 8.01989 164.423 7.97443 164.122 7.93466C163.821 7.89489 163.545 7.875 163.295 7.875C162.761 7.875 162.284 7.99148 161.864 8.22443C161.449 8.4517 161.119 8.76989 160.875 9.17898C160.636 9.58807 160.517 10.0597 160.517 10.5938V18H156.886Z" fill="url(#paint0_linear_1_6)"/>
<defs>
<linearGradient id="paint0_linear_1_6" x1="170" y1="1.04168" x2="-80.726" y2="75.5234" gradientUnits="userSpaceOnUse">
<stop stop-color="#41BBDD"/>
<stop offset="1" stop-color="#435EBE"/>
</linearGradient>
</defs>
</svg>
