<svg width="152" height="31" viewBox="0 0 152 31" fill="none" xmlns="http://www.w3.org/2000/svg">
<path d="M0.0227273 24V0.727272H15.4318V4.78409H4.94318V10.3295H14.4091V14.3864H4.94318V24H0.0227273ZM23.6619 0.727272V24H18.7415V0.727272H23.6619ZM47.1761 0.727272V24H42.9261L32.8011 9.35227H32.6307V24H27.7102V0.727272H32.0284L42.0739 15.3636H42.2784V0.727272H47.1761ZM74.0795 8.25C73.9205 7.69697 73.697 7.20833 73.4091 6.78409C73.1212 6.35227 72.7689 5.98864 72.3523 5.69318C71.9432 5.39015 71.4735 5.15909 70.9432 5C70.4205 4.84091 69.8409 4.76136 69.2045 4.76136C68.0152 4.76136 66.9697 5.05682 66.0682 5.64773C65.1742 6.23864 64.4773 7.09848 63.9773 8.22727C63.4773 9.34848 63.2273 10.7197 63.2273 12.3409C63.2273 13.9621 63.4735 15.3409 63.9659 16.4773C64.4583 17.6136 65.1553 18.4811 66.0568 19.0795C66.9583 19.6705 68.0227 19.9659 69.25 19.9659C70.3636 19.9659 71.3144 19.7689 72.1023 19.375C72.8977 18.9735 73.5038 18.4091 73.9205 17.6818C74.3447 16.9545 74.5568 16.0947 74.5568 15.1023L75.5568 15.25H69.5568V11.5455H79.2955V14.4773C79.2955 16.5227 78.8636 18.2803 78 19.75C77.1364 21.2121 75.947 22.3409 74.4318 23.1364C72.9167 23.9242 71.1818 24.3182 69.2273 24.3182C67.0455 24.3182 65.1288 23.8371 63.4773 22.875C61.8258 21.9053 60.5379 20.5303 59.6136 18.75C58.697 16.9621 58.2386 14.8409 58.2386 12.3864C58.2386 10.5 58.5114 8.81818 59.0568 7.34091C59.6098 5.85606 60.3826 4.59848 61.375 3.56818C62.3674 2.53788 63.5227 1.75379 64.8409 1.21591C66.1591 0.678029 67.5871 0.40909 69.125 0.40909C70.4432 0.40909 71.6705 0.602272 72.8068 0.988636C73.9432 1.36742 74.9508 1.9053 75.8295 2.60227C76.7159 3.29924 77.4394 4.12879 78 5.09091C78.5606 6.04545 78.9205 7.09848 79.0795 8.25H74.0795ZM82.9006 24V6.54545H87.5938V9.59091H87.7756C88.0938 8.50758 88.6278 7.68939 89.3778 7.13636C90.1278 6.57576 90.9915 6.29545 91.9688 6.29545C92.2112 6.29545 92.4725 6.31061 92.7528 6.34091C93.0331 6.37121 93.2794 6.41288 93.4915 6.46591V10.7614C93.2642 10.6932 92.9498 10.6326 92.5483 10.5795C92.1468 10.5265 91.7794 10.5 91.446 10.5C90.7339 10.5 90.0975 10.6553 89.5369 10.9659C88.9839 11.2689 88.5445 11.6932 88.2188 12.2386C87.9006 12.7841 87.7415 13.4129 87.7415 14.125V24H82.9006ZM103.068 24.3409C101.303 24.3409 99.7765 23.9659 98.4886 23.2159C97.2083 22.4583 96.2197 21.4053 95.5227 20.0568C94.8258 18.7008 94.4773 17.1288 94.4773 15.3409C94.4773 13.5379 94.8258 11.9621 95.5227 10.6136C96.2197 9.25758 97.2083 8.20454 98.4886 7.45454C99.7765 6.69697 101.303 6.31818 103.068 6.31818C104.833 6.31818 106.356 6.69697 107.636 7.45454C108.924 8.20454 109.917 9.25758 110.614 10.6136C111.311 11.9621 111.659 13.5379 111.659 15.3409C111.659 17.1288 111.311 18.7008 110.614 20.0568C109.917 21.4053 108.924 22.4583 107.636 23.2159C106.356 23.9659 104.833 24.3409 103.068 24.3409ZM103.091 20.5909C103.894 20.5909 104.564 20.3636 105.102 19.9091C105.64 19.447 106.045 18.8182 106.318 18.0227C106.598 17.2273 106.739 16.322 106.739 15.3068C106.739 14.2917 106.598 13.3864 106.318 12.5909C106.045 11.7955 105.64 11.1667 105.102 10.7045C104.564 10.2424 103.894 10.0114 103.091 10.0114C102.28 10.0114 101.598 10.2424 101.045 10.7045C100.5 11.1667 100.087 11.7955 99.8068 12.5909C99.5341 13.3864 99.3977 14.2917 99.3977 15.3068C99.3977 16.322 99.5341 17.2273 99.8068 18.0227C100.087 18.8182 100.5 19.447 101.045 19.9091C101.598 20.3636 102.28 20.5909 103.091 20.5909ZM126 16.5682V6.54545H130.841V24H126.193V20.8295H126.011C125.617 21.8523 124.962 22.6742 124.045 23.2955C123.136 23.9167 122.027 24.2273 120.716 24.2273C119.549 24.2273 118.523 23.9621 117.636 23.4318C116.75 22.9015 116.057 22.1477 115.557 21.1705C115.064 20.1932 114.814 19.0227 114.807 17.6591V6.54545H119.648V16.7955C119.655 17.8258 119.932 18.6402 120.477 19.2386C121.023 19.8371 121.754 20.1364 122.67 20.1364C123.254 20.1364 123.799 20.0038 124.307 19.7386C124.814 19.4659 125.223 19.0644 125.534 18.5341C125.852 18.0038 126.008 17.3485 126 16.5682ZM134.713 30.5455V6.54545H139.486V9.47727H139.702C139.914 9.00758 140.221 8.5303 140.622 8.04545C141.031 7.55303 141.562 7.14394 142.213 6.81818C142.872 6.48485 143.69 6.31818 144.668 6.31818C145.94 6.31818 147.115 6.65152 148.19 7.31818C149.266 7.97727 150.126 8.97348 150.77 10.3068C151.414 11.6326 151.736 13.2955 151.736 15.2955C151.736 17.2424 151.421 18.8864 150.793 20.2273C150.171 21.5606 149.323 22.572 148.247 23.2614C147.179 23.9432 145.982 24.2841 144.656 24.2841C143.717 24.2841 142.918 24.1288 142.259 23.8182C141.607 23.5076 141.073 23.1174 140.656 22.6477C140.24 22.1705 139.921 21.6894 139.702 21.2045H139.554V30.5455H134.713ZM139.452 15.2727C139.452 16.3106 139.596 17.2159 139.884 17.9886C140.171 18.7614 140.588 19.3636 141.134 19.7955C141.679 20.2197 142.342 20.4318 143.122 20.4318C143.91 20.4318 144.577 20.2159 145.122 19.7841C145.668 19.3447 146.08 18.7386 146.361 17.9659C146.649 17.1856 146.793 16.2879 146.793 15.2727C146.793 14.2652 146.652 13.3788 146.372 12.6136C146.092 11.8485 145.679 11.25 145.134 10.8182C144.588 10.3864 143.918 10.1705 143.122 10.1705C142.334 10.1705 141.668 10.3788 141.122 10.7955C140.584 11.2121 140.171 11.803 139.884 12.5682C139.596 13.3333 139.452 14.2348 139.452 15.2727Z" fill="url(#paint0_linear_1_6)"/>
<defs>
<linearGradient id="paint0_linear_1_6" x1="157" y1="1.12501" x2="-87.7499" y2="51.6905" gradientUnits="userSpaceOnUse">
<stop stop-color="#41BBDD"/>
<stop offset="1" stop-color="#435EBE"/>
</linearGradient>
</defs>
</svg>
